<svg width="20" height="20" viewBox="0 0 20 20" fill="none" xmlns="http://www.w3.org/2000/svg">
<path d="M3.30747 7.05732C3.36551 6.99921 3.43444 6.95311 3.51032 6.92166C3.58619 6.8902 3.66752 6.87402 3.74965 6.87402C3.83179 6.87402 3.91312 6.8902 3.98899 6.92166C4.06486 6.95311 4.13379 6.99921 4.19184 7.05732L9.99965 12.8659L15.8075 7.05732C15.9247 6.94004 16.0838 6.87416 16.2497 6.87416C16.4155 6.87416 16.5746 6.94004 16.6918 7.05732C16.8091 7.1746 16.875 7.33366 16.875 7.49951C16.875 7.66536 16.8091 7.82442 16.6918 7.9417L10.4418 14.1917C10.3838 14.2498 10.3149 14.2959 10.239 14.3274C10.1631 14.3588 10.0818 14.375 9.99965 14.375C9.91752 14.375 9.83619 14.3588 9.76031 14.3274C9.68444 14.2959 9.61551 14.2498 9.55746 14.1917L3.30747 7.94169C3.24935 7.88365 3.20326 7.81472 3.1718 7.73884C3.14035 7.66297 3.12416 7.58164 3.12416 7.49951C3.12416 7.41737 3.14035 7.33604 3.1718 7.26017C3.20326 7.1843 3.24935 7.11536 3.30747 7.05732Z" fill="white"/>
</svg>
