<svg width="24" height="24" viewBox="0 0 24 24" fill="none" xmlns="http://www.w3.org/2000/svg">
<g clip-path="url(#clip0_113_1258)">
<path d="M6.94434 4.99905C6.94407 5.52948 6.7331 6.03808 6.35784 6.41297C5.98258 6.78785 5.47377 6.99831 4.94334 6.99805C4.4129 6.99778 3.9043 6.78681 3.52942 6.41155C3.15453 6.03629 2.94407 5.52748 2.94434 4.99705C2.9446 4.46661 3.15557 3.95801 3.53083 3.58313C3.90609 3.20824 4.4149 2.99778 4.94534 2.99805C5.47577 2.99831 5.98437 3.20928 6.35926 3.58454C6.73414 3.9598 6.9446 4.46861 6.94434 4.99905ZM7.00434 8.47905H3.00434V20.999H7.00434V8.47905ZM13.3243 8.47905H9.34434V20.999H13.2843V14.429C13.2843 10.769 18.0543 10.429 18.0543 14.429V20.999H22.0043V13.069C22.0043 6.89905 14.9443 7.12905 13.2843 10.159L13.3243 8.47905Z" fill="white" fill-opacity="0.7"/>
</g>
<defs>
<clipPath id="clip0_113_1258">
<rect width="24" height="24" fill="white"/>
</clipPath>
</defs>
</svg>
