<svg width="60" height="60" viewBox="0 0 60 60" fill="none" xmlns="http://www.w3.org/2000/svg">
<rect width="60" height="60" rx="30" fill="#B47DFB"/>
<g clip-path="url(#clip0_123_355)">
<path d="M35.7171 43.3177L35.7196 43.3192C36.2247 43.6236 36.8085 43.7724 37.3977 43.7469C37.987 43.7214 38.5557 43.5228 39.0327 43.1758C39.5097 42.8289 39.8738 42.349 40.0796 41.7963C40.2851 41.2442 40.3235 40.6439 40.1901 40.0702C40.1899 40.0694 40.1897 40.0687 40.1896 40.0679L38.6361 33.3295L43.5395 29.0502H43.5424L43.8238 28.8074C44.2712 28.4216 44.5947 27.9123 44.7537 27.3433C44.9128 26.7744 44.9003 26.1712 44.7179 25.6093C44.5355 25.0474 44.1912 24.5519 43.7283 24.1848C43.2658 23.8181 42.7053 23.596 42.1172 23.5463C42.1167 23.5463 42.1162 23.5462 42.1157 23.5462L35.2898 22.9548L32.6149 16.5939C32.6147 16.5935 32.6145 16.5931 32.6144 16.5927C32.3868 16.048 32.0033 15.5827 31.512 15.2553C31.0203 14.9277 30.4428 14.7529 29.852 14.7529C29.2612 14.7529 28.6836 14.9277 28.192 15.2553C27.7006 15.5827 27.317 16.0481 27.0895 16.593C27.0893 16.5933 27.0892 16.5936 27.0891 16.5939L24.4222 22.9548L17.5945 23.5462C17.594 23.5462 17.5936 23.5463 17.5931 23.5463C17.005 23.596 16.4445 23.8181 15.9819 24.1848C15.519 24.5519 15.1747 25.0474 14.9923 25.6093C14.8099 26.1712 14.7974 26.7744 14.9565 27.3433C15.1152 27.9111 15.4377 28.4196 15.8837 28.8051C15.8846 28.8059 15.8855 28.8067 15.8864 28.8074L21.0693 33.3366L19.5181 40.0679C19.518 40.0684 19.5179 40.0689 19.5178 40.0694C19.3842 40.6434 19.4225 41.244 19.6281 41.7963C19.8339 42.349 20.198 42.8289 20.675 43.1758C21.152 43.5228 21.7207 43.7214 22.31 43.7469C22.8992 43.7724 23.483 43.6236 23.9882 43.3192L23.9914 43.3172L29.8475 39.7576L35.7171 43.3177Z" stroke="#161616" stroke-width="2"/>
</g>
<defs>
<clipPath id="clip0_123_355">
<rect width="32" height="32" fill="white" transform="translate(13.8516 13.7529)"/>
</clipPath>
</defs>
</svg>
