<svg width="16" height="16" viewBox="0 0 16 16" fill="none" xmlns="http://www.w3.org/2000/svg">
<g clip-path="url(#clip0_123_494)">
<path d="M4.62956 3.33205C4.62938 3.68567 4.48874 4.02474 4.23856 4.27466C3.98839 4.52458 3.64918 4.66489 3.29556 4.66471C2.94194 4.66454 2.60287 4.52389 2.35294 4.27372C2.10302 4.02354 1.96271 3.68434 1.96289 3.33071C1.96307 2.97709 2.10371 2.63802 2.35389 2.3881C2.60406 2.13818 2.94327 1.99787 3.29689 1.99805C3.65051 1.99822 3.98958 2.13887 4.2395 2.38904C4.48943 2.63922 4.62973 2.97842 4.62956 3.33205ZM4.66956 5.65205H2.00289V13.9987H4.66956V5.65205ZM8.88289 5.65205H6.22956V13.9987H8.85623V9.61871C8.85623 7.17871 12.0362 6.95205 12.0362 9.61871V13.9987H14.6696V8.71205C14.6696 4.59871 9.96289 4.75205 8.85623 6.77205L8.88289 5.65205Z" fill="white" fill-opacity="0.7"/>
</g>
<defs>
<clipPath id="clip0_123_494">
<rect width="16" height="16" fill="white"/>
</clipPath>
</defs>
</svg>
