<svg width="146" height="54" viewBox="0 0 146 54" fill="none" xmlns="http://www.w3.org/2000/svg">
<g clip-path="url(#clip0_113_1030)">
<rect width="146" height="54" rx="27" fill="white" fill-opacity="0.03"/>
<g opacity="0.03">
<circle cx="13.7854" cy="40.405" r="4.39286" transform="rotate(-90 13.7854 40.405)" stroke="white" stroke-width="0.5"/>
<circle cx="23.0706" cy="40.4045" r="4.39286" transform="rotate(-90 23.0706 40.4045)" stroke="white" stroke-width="0.5"/>
<circle cx="13.7854" cy="21.8928" r="4.39286" transform="rotate(-90 13.7854 21.8928)" stroke="white" stroke-width="0.5"/>
<circle cx="23.0706" cy="21.8933" r="4.39286" transform="rotate(-90 23.0706 21.8933)" stroke="white" stroke-width="0.5"/>
<circle cx="13.7854" cy="3.38107" r="4.39286" transform="rotate(-90 13.7854 3.38107)" stroke="white" stroke-width="0.5"/>
<circle cx="23.0706" cy="3.38156" r="4.39286" transform="rotate(-90 23.0706 3.38156)" stroke="white" stroke-width="0.5"/>
<circle cx="32.3577" cy="3.38156" r="4.39286" transform="rotate(-90 32.3577 3.38156)" stroke="white" stroke-width="0.5"/>
<circle cx="4.50028" cy="3.38107" r="4.39286" transform="rotate(-90 4.50028 3.38107)" stroke="white" stroke-width="0.5"/>
<circle cx="13.7854" cy="3.38107" r="4.39286" transform="rotate(-90 13.7854 3.38107)" stroke="white" stroke-width="0.5"/>
<circle cx="13.7854" cy="49.6906" r="4.39286" transform="rotate(-90 13.7854 49.6906)" stroke="white" stroke-width="0.5"/>
<circle cx="23.0706" cy="49.6906" r="4.39286" transform="rotate(-90 23.0706 49.6906)" fill="#D9D9D9" stroke="white" stroke-width="0.5"/>
<circle cx="13.7854" cy="31.1789" r="4.39286" transform="rotate(-90 13.7854 31.1789)" stroke="white" stroke-width="0.5"/>
<circle cx="23.0706" cy="31.1784" r="4.39286" transform="rotate(-90 23.0706 31.1784)" stroke="white" stroke-width="0.5"/>
<circle cx="13.7854" cy="12.6667" r="4.39286" transform="rotate(-90 13.7854 12.6667)" stroke="white" stroke-width="0.5"/>
<circle cx="23.0706" cy="12.6672" r="4.39286" transform="rotate(-90 23.0706 12.6672)" stroke="white" stroke-width="0.5"/>
<circle cx="32.3577" cy="12.6672" r="4.39286" transform="rotate(-90 32.3577 12.6672)" fill="#D9D9D9" stroke="white" stroke-width="0.5"/>
<circle cx="4.50028" cy="12.6667" r="4.39286" transform="rotate(-90 4.50028 12.6667)" stroke="white" stroke-width="0.5"/>
<circle cx="13.7854" cy="12.6667" r="4.39286" transform="rotate(-90 13.7854 12.6667)" stroke="white" stroke-width="0.5"/>
<circle cx="-0.17234" cy="-0.339379" r="1.22024" transform="rotate(-90 -0.17234 -0.339379)" fill="white"/>
<path d="M13.3086 12.7261L25.0943 12.7261" stroke="white" stroke-width="0.5"/>
<path d="M13.6973 3.38086L25.483 3.38086" stroke="white" stroke-width="0.5"/>
<path d="M13.6973 21.8931L25.483 21.8931" stroke="white" stroke-width="0.5"/>
<path d="M13.6973 31.1787L25.483 31.1787" stroke="white" stroke-width="0.5"/>
<path d="M13.7266 40.4048L25.5123 40.4048" stroke="white" stroke-width="0.5"/>
<path d="M13.7559 49.6904L25.5416 49.6904" stroke="white" stroke-width="0.5"/>
<path d="M4.58984 -4V13.2619" stroke="white" stroke-width="0.5"/>
<path d="M13.7559 62.25L13.7559 -3.97024" stroke="white" stroke-width="0.5"/>
<path d="M22.9824 62.25L22.9824 -3.97024" stroke="white" stroke-width="0.5"/>
<path d="M18.3984 62.25L18.3984 -3.97024" stroke="white" stroke-width="0.5"/>
<circle cx="13.7573" cy="12.6963" r="1.22024" transform="rotate(-90 13.7573 12.6963)" fill="white"/>
<circle cx="18.3687" cy="49.7202" r="1.22024" transform="rotate(-90 18.3687 49.7202)" fill="white"/>
</g>
<g opacity="0.03">
<circle cx="56.93" cy="40.405" r="4.39286" transform="rotate(-90 56.93 40.405)" stroke="white" stroke-width="0.5"/>
<circle cx="66.2151" cy="40.405" r="4.39286" transform="rotate(-90 66.2151 40.405)" stroke="white" stroke-width="0.5"/>
<circle cx="84.7854" cy="40.405" r="4.39286" transform="rotate(-90 84.7854 40.405)" stroke="white" stroke-width="0.5"/>
<circle cx="94.0706" cy="40.4045" r="4.39286" transform="rotate(-90 94.0706 40.4045)" stroke="white" stroke-width="0.5"/>
<circle cx="56.93" cy="21.8928" r="4.39286" transform="rotate(-90 56.93 21.8928)" stroke="white" stroke-width="0.5"/>
<circle cx="66.2151" cy="21.8928" r="4.39286" transform="rotate(-90 66.2151 21.8928)" stroke="white" stroke-width="0.5"/>
<circle cx="84.7854" cy="21.8928" r="4.39286" transform="rotate(-90 84.7854 21.8928)" stroke="white" stroke-width="0.5"/>
<circle cx="94.0706" cy="21.8933" r="4.39286" transform="rotate(-90 94.0706 21.8933)" stroke="white" stroke-width="0.5"/>
<circle cx="56.93" cy="3.38107" r="4.39286" transform="rotate(-90 56.93 3.38107)" stroke="white" stroke-width="0.5"/>
<circle cx="47.6429" cy="3.38107" r="4.39286" transform="rotate(-90 47.6429 3.38107)" stroke="white" stroke-width="0.5"/>
<circle cx="66.2151" cy="3.38107" r="4.39286" transform="rotate(-90 66.2151 3.38107)" stroke="white" stroke-width="0.5"/>
<circle cx="84.7854" cy="3.38107" r="4.39286" transform="rotate(-90 84.7854 3.38107)" stroke="white" stroke-width="0.5"/>
<circle cx="94.0706" cy="3.38156" r="4.39286" transform="rotate(-90 94.0706 3.38156)" stroke="white" stroke-width="0.5"/>
<circle cx="103.358" cy="3.38156" r="4.39286" transform="rotate(-90 103.358 3.38156)" stroke="white" stroke-width="0.5"/>
<circle cx="75.5003" cy="3.38107" r="4.39286" transform="rotate(-90 75.5003 3.38107)" stroke="white" stroke-width="0.5"/>
<circle cx="84.7854" cy="3.38107" r="4.39286" transform="rotate(-90 84.7854 3.38107)" stroke="white" stroke-width="0.5"/>
<circle cx="56.93" cy="49.6906" r="4.39286" transform="rotate(-90 56.93 49.6906)" stroke="white" stroke-width="0.5"/>
<circle cx="66.2151" cy="49.6906" r="4.39286" transform="rotate(-90 66.2151 49.6906)" stroke="white" stroke-width="0.5"/>
<circle cx="84.7854" cy="49.6906" r="4.39286" transform="rotate(-90 84.7854 49.6906)" fill="#D9D9D9" stroke="white" stroke-width="0.5"/>
<circle cx="94.0706" cy="49.6906" r="4.39286" transform="rotate(-90 94.0706 49.6906)" stroke="white" stroke-width="0.5"/>
<circle cx="56.93" cy="31.1784" r="4.39286" transform="rotate(-90 56.93 31.1784)" stroke="white" stroke-width="0.5"/>
<circle cx="66.2151" cy="31.1784" r="4.39286" transform="rotate(-90 66.2151 31.1784)" stroke="white" stroke-width="0.5"/>
<circle cx="84.7854" cy="31.1789" r="4.39286" transform="rotate(-90 84.7854 31.1789)" stroke="white" stroke-width="0.5"/>
<circle cx="94.0706" cy="31.1784" r="4.39286" transform="rotate(-90 94.0706 31.1784)" stroke="white" stroke-width="0.5"/>
<circle cx="56.93" cy="12.6667" r="4.39286" transform="rotate(-90 56.93 12.6667)" stroke="white" stroke-width="0.5"/>
<circle cx="47.6429" cy="12.6667" r="4.39286" transform="rotate(-90 47.6429 12.6667)" stroke="white" stroke-width="0.5"/>
<circle cx="66.2151" cy="12.6667" r="4.39286" transform="rotate(-90 66.2151 12.6667)" stroke="white" stroke-width="0.5"/>
<circle cx="84.7854" cy="12.6667" r="4.39286" transform="rotate(-90 84.7854 12.6667)" stroke="white" stroke-width="0.5"/>
<circle cx="94.0706" cy="12.6672" r="4.39286" transform="rotate(-90 94.0706 12.6672)" stroke="white" stroke-width="0.5"/>
<circle cx="103.358" cy="12.6672" r="4.39286" transform="rotate(-90 103.358 12.6672)" stroke="white" stroke-width="0.5"/>
<circle cx="75.5003" cy="12.6667" r="4.39286" transform="rotate(-90 75.5003 12.6667)" fill="#D9D9D9" stroke="white" stroke-width="0.5"/>
<circle cx="84.7854" cy="12.6667" r="4.39286" transform="rotate(-90 84.7854 12.6667)" stroke="white" stroke-width="0.5"/>
<circle cx="53.2083" cy="35.792" r="1.22024" transform="rotate(-90 53.2083 35.792)" fill="white"/>
<circle cx="70.8277" cy="-0.339379" r="1.22024" transform="rotate(-90 70.8277 -0.339379)" fill="white"/>
<path d="M48.6543 50.167L66.5114 50.167" stroke="white" stroke-width="0.5"/>
<path d="M48.6543 40.9404L66.5114 40.9404" stroke="white" stroke-width="0.5"/>
<path d="M48.6543 31.7139L66.5114 31.7139" stroke="white" stroke-width="0.5"/>
<path d="M48.6543 22.4878L66.5114 22.4878" stroke="white" stroke-width="0.5"/>
<path d="M48.6543 13.2617L66.5114 13.2617" stroke="white" stroke-width="0.5"/>
<path d="M84.3086 12.7261L96.0943 12.7261" stroke="white" stroke-width="0.5"/>
<path d="M84.6973 3.38086L96.483 3.38086" stroke="white" stroke-width="0.5"/>
<path d="M84.6973 21.8931L96.483 21.8931" stroke="white" stroke-width="0.5"/>
<path d="M84.6973 31.1787L96.483 31.1787" stroke="white" stroke-width="0.5"/>
<path d="M84.7266 40.4048L96.5123 40.4048" stroke="white" stroke-width="0.5"/>
<path d="M84.7559 49.6904L96.5416 49.6904" stroke="white" stroke-width="0.5"/>
<path d="M48.6543 4.03564L66.5114 4.03564" stroke="white" stroke-width="0.5"/>
<path d="M75.5898 -4V13.2619" stroke="white" stroke-width="0.5"/>
<path d="M57.168 62.25L57.168 -3.97024" stroke="white" stroke-width="0.5"/>
<path d="M66.4219 62.25L66.4219 -3.97024" stroke="white" stroke-width="0.5"/>
<path d="M84.7559 62.25L84.7559 -3.97024" stroke="white" stroke-width="0.5"/>
<path d="M93.9824 62.25L93.9824 -3.97024" stroke="white" stroke-width="0.5"/>
<path d="M89.3984 62.25L89.3984 -3.97024" stroke="white" stroke-width="0.5"/>
<circle cx="66.3921" cy="50.1963" r="1.22024" transform="rotate(-90 66.3921 50.1963)" fill="white"/>
<circle cx="84.7573" cy="12.6963" r="1.22024" transform="rotate(-90 84.7573 12.6963)" fill="white"/>
<circle cx="89.3687" cy="49.7202" r="1.22024" transform="rotate(-90 89.3687 49.7202)" fill="white"/>
</g>
<g opacity="0.03">
<circle cx="127.93" cy="40.405" r="4.39286" transform="rotate(-90 127.93 40.405)" stroke="white" stroke-width="0.5"/>
<circle cx="137.215" cy="40.405" r="4.39286" transform="rotate(-90 137.215 40.405)" stroke="white" stroke-width="0.5"/>
<circle cx="127.93" cy="21.8928" r="4.39286" transform="rotate(-90 127.93 21.8928)" stroke="white" stroke-width="0.5"/>
<circle cx="137.215" cy="21.8928" r="4.39286" transform="rotate(-90 137.215 21.8928)" stroke="white" stroke-width="0.5"/>
<circle cx="127.93" cy="3.38107" r="4.39286" transform="rotate(-90 127.93 3.38107)" stroke="white" stroke-width="0.5"/>
<circle cx="118.643" cy="3.38107" r="4.39286" transform="rotate(-90 118.643 3.38107)" stroke="white" stroke-width="0.5"/>
<circle cx="137.215" cy="3.38107" r="4.39286" transform="rotate(-90 137.215 3.38107)" stroke="white" stroke-width="0.5"/>
<circle cx="146.5" cy="3.38107" r="4.39286" transform="rotate(-90 146.5 3.38107)" stroke="white" stroke-width="0.5"/>
<circle cx="127.93" cy="49.6906" r="4.39286" transform="rotate(-90 127.93 49.6906)" stroke="white" stroke-width="0.5"/>
<circle cx="137.215" cy="49.6906" r="4.39286" transform="rotate(-90 137.215 49.6906)" stroke="white" stroke-width="0.5"/>
<circle cx="127.93" cy="31.1784" r="4.39286" transform="rotate(-90 127.93 31.1784)" stroke="white" stroke-width="0.5"/>
<circle cx="137.215" cy="31.1784" r="4.39286" transform="rotate(-90 137.215 31.1784)" stroke="white" stroke-width="0.5"/>
<circle cx="127.93" cy="12.6667" r="4.39286" transform="rotate(-90 127.93 12.6667)" stroke="white" stroke-width="0.5"/>
<circle cx="118.643" cy="12.6667" r="4.39286" transform="rotate(-90 118.643 12.6667)" fill="#D9D9D9" stroke="white" stroke-width="0.5"/>
<circle cx="137.215" cy="12.6667" r="4.39286" transform="rotate(-90 137.215 12.6667)" stroke="white" stroke-width="0.5"/>
<circle cx="146.5" cy="12.6667" r="4.39286" transform="rotate(-90 146.5 12.6667)" stroke="white" stroke-width="0.5"/>
<circle cx="124.208" cy="35.792" r="1.22024" transform="rotate(-90 124.208 35.792)" fill="white"/>
<circle cx="141.828" cy="-0.339379" r="1.22024" transform="rotate(-90 141.828 -0.339379)" fill="white"/>
<path d="M119.654 50.167L137.511 50.167" stroke="white" stroke-width="0.5"/>
<path d="M119.654 40.9404L137.511 40.9404" stroke="white" stroke-width="0.5"/>
<path d="M119.654 31.7139L137.511 31.7139" stroke="white" stroke-width="0.5"/>
<path d="M119.654 22.4878L137.511 22.4878" stroke="white" stroke-width="0.5"/>
<path d="M119.654 13.2617L137.511 13.2617" stroke="white" stroke-width="0.5"/>
<path d="M119.654 4.03564L137.511 4.03564" stroke="white" stroke-width="0.5"/>
<path d="M128.168 62.25L128.168 -3.97024" stroke="white" stroke-width="0.5"/>
<path d="M137.422 62.25L137.422 -3.97024" stroke="white" stroke-width="0.5"/>
<circle cx="137.392" cy="50.1963" r="1.22024" transform="rotate(-90 137.392 50.1963)" fill="white"/>
</g>
<path d="M111.531 26.5719C103.583 24.4423 99.6198 34.1347 97.4902 42.0825" stroke="white" stroke-width="2"/>
<path d="M96.8797 7.99949C96.8797 16.2277 103.508 26.3677 111.736 26.3677" stroke="white" stroke-width="2"/>
<path d="M111.777 26.5718L107.287 26.5718" stroke="white"/>
<line x1="112" y1="26" x2="30" y2="26" stroke="white" stroke-width="2"/>
</g>
<defs>
<clipPath id="clip0_113_1030">
<rect width="146" height="54" rx="27" fill="white"/>
</clipPath>
</defs>
</svg>
