<svg width="82" height="85" viewBox="0 0 82 85" fill="none" xmlns="http://www.w3.org/2000/svg">
<g clip-path="url(#clip0_113_5598)">
<rect x="15.5566" y="-22" width="128" height="22" rx="11" transform="rotate(45 15.5566 -22)" fill="#F24E1E"/>
<path d="M33.4548 18.5255L40.6571 11.3232L43.3253 13.9914C44.8673 15.5334 44.9688 17.3654 43.5911 18.743C42.2087 20.1254 40.3429 19.9901 38.8009 18.4481L37.2396 16.8868L34.5279 19.5986L33.4548 18.5255ZM38.1677 15.9587L39.7097 17.5007C40.6377 18.4288 41.7205 18.4965 42.5326 17.6844C43.3446 16.8723 43.2673 15.7992 42.3392 14.8712L40.7972 13.3292L38.1677 15.9587ZM41.2903 26.593C39.8305 25.1332 39.932 23.0595 41.503 21.4885C43.0836 19.9079 45.1669 19.7967 46.6267 21.2565C48.0865 22.7163 47.9705 24.7948 46.3899 26.3755C44.8189 27.9464 42.7501 28.0528 41.2903 26.593ZM42.17 25.7132C43.0449 26.5881 44.2775 26.4286 45.3603 25.3459C46.4576 24.2486 46.6171 23.0063 45.747 22.1363C44.8769 21.2662 43.6347 21.4257 42.5374 22.523C41.4498 23.6106 41.2951 24.8383 42.17 25.7132ZM42.7307 31.8424L49.8557 24.7175L50.8563 25.7181L50.1215 26.4528L50.136 26.4673C51.0206 26.2304 51.8907 26.5495 52.5529 27.2117C53.8725 28.5313 53.684 30.4986 52.1082 32.0744C50.5276 33.6551 48.5699 33.8436 47.2406 32.5143C46.5736 31.8472 46.3125 31.0158 46.5542 30.0878L46.5397 30.0733L43.7507 32.8623L42.7307 31.8424ZM47.9125 31.4267C48.7342 32.2484 49.9233 32.1904 51.0738 31.04C52.229 29.8847 52.287 28.6956 51.4653 27.8739C50.5952 27.0038 49.3288 27.1488 48.2557 28.2219C47.1826 29.295 47.0424 30.5566 47.9125 31.4267ZM52.2 37.4737C51.1511 36.4248 51.0448 34.936 52.3789 33.6019L55.5595 30.4213L56.5794 31.4412L53.5245 34.4961C52.7076 35.313 52.6979 36.1444 53.4085 36.855C54.0997 37.5462 55.0423 37.6767 55.9897 36.7293L58.9286 33.7904L59.9485 34.8103L54.8441 39.9148L53.8435 38.9142L54.6121 38.1456C53.684 38.3776 52.8768 38.1504 52.2 37.4737ZM64.2167 34.8828L57.0144 42.0851L55.9945 41.0652L63.1968 33.8629L64.2167 34.8828ZM59.644 44.879C58.6289 43.8639 58.3969 42.5878 59.4168 41.5679C60.5817 40.403 61.8095 41.128 62.9696 42.0464C64.0427 42.8875 64.3521 43.2162 64.7243 42.844L64.7678 42.8005C65.2608 42.3075 65.2366 41.5679 64.5889 40.9202C63.9364 40.2676 63.1388 40.1758 62.6312 40.606L61.6307 39.6054C62.6506 38.6821 64.1635 38.8223 65.4396 40.0984C66.6964 41.3552 66.7979 42.7908 65.7587 43.8301L62.259 47.3297L61.2536 46.3243L61.9787 45.5992L61.9594 45.5799C61.3358 45.7781 60.5237 45.7587 59.644 44.879ZM60.6736 44.2651C61.5727 45.1642 62.5346 45.0433 63.163 44.415L63.7623 43.8156C63.511 43.7866 62.8874 43.3274 62.2687 42.8633C61.6307 42.3896 60.9298 42.0851 60.4126 42.6023C59.9727 43.0422 60.079 43.6706 60.6736 44.2651ZM63.4095 48.4801L68.5139 43.3757L69.4903 44.3521L68.6637 45.1787L68.6831 45.198C69.4275 44.8307 70.1574 44.8935 70.8051 45.5412C70.9598 45.6959 71.0806 45.8457 71.1531 45.9376L70.2009 46.8898C70.138 46.798 69.9495 46.5418 69.7127 46.305C69.1375 45.7297 68.277 45.6524 67.4456 46.4838L64.4294 49.5001L63.4095 48.4801Z" fill="white"/>
</g>
<defs>
<clipPath id="clip0_113_5598">
<rect x="15.5566" y="-22" width="128" height="22" rx="11" transform="rotate(45 15.5566 -22)" fill="white"/>
</clipPath>
</defs>
</svg>
