<svg width="24" height="24" viewBox="0 0 24 24" fill="none" xmlns="http://www.w3.org/2000/svg">
<g clip-path="url(#clip0_113_1250)">
<path d="M22.1643 5.65641C21.4008 5.99411 20.5912 6.21589 19.7623 6.31441C20.636 5.79185 21.29 4.96943 21.6023 4.00041C20.7823 4.48841 19.8833 4.83041 18.9463 5.01541C18.3169 4.34199 17.4826 3.89538 16.5732 3.745C15.6638 3.59462 14.7302 3.74891 13.9175 4.18387C13.1048 4.61883 12.4586 5.3101 12.0794 6.15021C11.7001 6.99032 11.609 7.93219 11.8202 8.82941C10.1574 8.74607 8.53058 8.31394 7.04554 7.56108C5.56049 6.80822 4.25038 5.75146 3.20025 4.45941C2.82854 5.09786 2.63321 5.82364 2.63425 6.56241C2.63425 8.01241 3.37225 9.29341 4.49425 10.0434C3.83026 10.0225 3.18088 9.84319 2.60025 9.52041V9.57241C2.60045 10.5381 2.93462 11.474 3.5461 12.2215C4.15758 12.9689 5.00873 13.4819 5.95525 13.6734C5.33886 13.8404 4.69256 13.8651 4.06525 13.7454C4.33212 14.5766 4.85226 15.3036 5.55284 15.8245C6.25343 16.3454 7.09938 16.6342 7.97225 16.6504C7.10473 17.3317 6.11143 17.8354 5.04913 18.1326C3.98683 18.4298 2.87638 18.5147 1.78125 18.3824C3.69295 19.6118 5.91835 20.2645 8.19125 20.2624C15.8842 20.2624 20.0913 13.8894 20.0913 8.36241C20.0913 8.18241 20.0863 8.00041 20.0783 7.82241C20.8971 7.23058 21.6038 6.49743 22.1653 5.65741L22.1643 5.65641Z" fill="white" fill-opacity="0.7"/>
</g>
<defs>
<clipPath id="clip0_113_1250">
<rect width="24" height="24" fill="white"/>
</clipPath>
</defs>
</svg>
