<svg width="20" height="20" viewBox="0 0 20 20" fill="none" xmlns="http://www.w3.org/2000/svg">
<path d="M19.1953 6.07039L16.8359 8.42195C16.3672 13.8829 11.7578 18.1251 6.24996 18.1251C5.11715 18.1251 4.17965 17.9454 3.46871 17.5938C2.8984 17.3048 2.66403 17.0001 2.60153 16.9063C2.54982 16.8278 2.51649 16.7386 2.50404 16.6454C2.4916 16.5522 2.50034 16.4573 2.52963 16.368C2.55891 16.2786 2.60799 16.197 2.67319 16.1293C2.73839 16.0615 2.81805 16.0093 2.90621 15.9766C2.92184 15.9688 4.76559 15.2657 5.9609 13.9141C5.21961 13.3863 4.56805 12.7427 4.03121 12.0079C2.9609 10.5548 1.82809 8.03132 2.50778 4.2657C2.52914 4.15375 2.58035 4.04965 2.65598 3.96439C2.73161 3.87913 2.82886 3.81589 2.93746 3.78132C3.04641 3.74565 3.16307 3.74063 3.27468 3.76681C3.38629 3.79299 3.48856 3.84936 3.57028 3.92976C3.59371 3.96101 6.19528 6.52351 9.37496 7.35164V6.87507C9.37803 6.37954 9.47868 5.88945 9.67115 5.43281C9.86362 4.97617 10.1442 4.56191 10.4967 4.21369C10.8493 3.86547 11.267 3.59011 11.726 3.40332C12.185 3.21653 12.6763 3.12199 13.1718 3.12507C13.8222 3.13435 14.4591 3.31193 15.0205 3.64053C15.5818 3.96912 16.0485 4.43751 16.375 5.00007H18.75C18.8734 4.99969 18.9941 5.03583 19.097 5.10396C19.1999 5.17208 19.2803 5.26913 19.3281 5.38289C19.3731 5.49833 19.3845 5.62416 19.361 5.74583C19.3375 5.8675 19.2801 5.98002 19.1953 6.07039Z" fill="white"/>
</svg>
