<svg width="16" height="16" viewBox="0 0 16 16" fill="none" xmlns="http://www.w3.org/2000/svg">
<path d="M8.52495 11.7199C8.59487 11.7896 8.65035 11.8724 8.6882 11.9636C8.72606 12.0547 8.74554 12.1525 8.74554 12.2512C8.74554 12.3499 8.72606 12.4476 8.6882 12.5388C8.65035 12.6299 8.59487 12.7127 8.52495 12.7824L8.1537 13.1537C7.45021 13.8572 6.49608 14.2524 5.5012 14.2524C4.50632 14.2524 3.55219 13.8572 2.8487 13.1537C2.14521 12.4502 1.75 11.496 1.75 10.5012C1.75 9.50629 2.14521 8.55216 2.8487 7.84867L4.3562 6.34179C5.03213 5.6642 5.94156 5.27069 6.89822 5.24187C7.85487 5.21305 8.78634 5.55111 9.50183 6.18679C9.5757 6.25246 9.63591 6.33202 9.67903 6.42095C9.72214 6.50988 9.74732 6.60644 9.75313 6.7051C9.75893 6.80376 9.74524 6.9026 9.71285 6.99597C9.68046 7.08935 9.62999 7.17543 9.56433 7.24929C9.49867 7.32316 9.4191 7.38338 9.33017 7.42649C9.24124 7.46961 9.14468 7.49479 9.04602 7.5006C8.94736 7.5064 8.84852 7.49271 8.75515 7.46032C8.66177 7.42792 8.5757 7.37746 8.50183 7.31179C8.07278 6.93075 7.51435 6.72803 6.94077 6.74511C6.3672 6.76219 5.82182 6.99777 5.4162 7.40367L3.90995 8.90867C3.48793 9.3307 3.25083 9.90308 3.25083 10.4999C3.25083 11.0968 3.48793 11.6691 3.90995 12.0912C4.33198 12.5132 4.90437 12.7503 5.5012 12.7503C6.09804 12.7503 6.67043 12.5132 7.09245 12.0912L7.4637 11.7199C7.53336 11.6502 7.61607 11.5949 7.70712 11.5571C7.79817 11.5194 7.89576 11.5 7.99433 11.5C8.09289 11.5 8.19048 11.5194 8.28153 11.5571C8.37258 11.5949 8.4553 11.6502 8.52495 11.7199ZM13.155 2.84492C12.4509 2.14251 11.497 1.74805 10.5025 1.74805C9.50793 1.74805 8.55401 2.14251 7.84995 2.84492L7.4787 3.21617C7.33781 3.35707 7.25865 3.54816 7.25865 3.74742C7.25865 3.94668 7.33781 4.13777 7.4787 4.27867C7.6196 4.41957 7.81069 4.49872 8.00995 4.49872C8.20921 4.49872 8.40031 4.41957 8.5412 4.27867L8.91245 3.90742C9.33448 3.48539 9.90687 3.2483 10.5037 3.2483C11.1005 3.2483 11.6729 3.48539 12.095 3.90742C12.517 4.32945 12.7541 4.90183 12.7541 5.49867C12.7541 6.0955 12.517 6.66789 12.095 7.08992L10.5881 8.59742C10.1821 9.00315 9.63642 9.23839 9.0627 9.255C8.48898 9.27162 7.9306 9.06835 7.50183 8.68679C7.42796 8.62113 7.34188 8.57066 7.24851 8.53827C7.15513 8.50588 7.05629 8.49219 6.95763 8.49799C6.85897 8.5038 6.76242 8.52898 6.67349 8.57209C6.58455 8.61521 6.50499 8.67543 6.43933 8.74929C6.37367 8.82316 6.3232 8.90924 6.2908 9.00261C6.25841 9.09599 6.24472 9.19483 6.25053 9.29349C6.25633 9.39215 6.28151 9.4887 6.32463 9.57763C6.36775 9.66657 6.42796 9.74613 6.50183 9.81179C7.21681 10.4473 8.14766 10.7856 9.10386 10.7574C10.0601 10.7291 10.9693 10.3365 11.6456 9.65992L13.1531 8.15304C13.8563 7.44916 14.2515 6.49498 14.2518 5.49999C14.2522 4.50501 13.8577 3.55056 13.155 2.84617V2.84492Z" fill="white" fill-opacity="0.7"/>
</svg>
