<svg width="102" height="53" viewBox="0 0 102 53" fill="none" xmlns="http://www.w3.org/2000/svg">
<path opacity="0.7" d="M1.28589 38.8599C1.28589 38.8599 24.9526 15.3599 36.2859 4.35985C47.6192 -6.64015 21.3381 12.1985 14.7859 20.3599C7.27221 29.7188 -3.83277 39.1971 3.28589 48.8599C11.6479 60.2104 30.9608 13.3241 32.2859 27.3599C33.2081 37.1282 17.5848 39.1966 19.2859 48.8599C21.7851 63.0566 50.1227 19.1929 52.7859 33.3599C53.7765 38.6293 47.7558 42.1327 50.2859 46.8599C54.3276 54.4111 68.723 29.4388 70.2859 37.8599C70.8659 40.9851 68.5779 42.688 68.7859 45.8599C69.6179 58.5472 100.786 39.8599 100.786 39.8599" stroke="white"/>
</svg>
