<svg width="84" height="59" viewBox="0 0 84 59" fill="none" xmlns="http://www.w3.org/2000/svg">
<path d="M46.6719 52.239L46.6719 18.4376C46.6772 13.5493 48.7136 8.86273 52.3343 5.40619C55.9549 1.94966 60.864 0.00555229 65.9844 0.00046773C66.838 0.000467802 67.6567 0.324214 68.2604 0.900485C68.864 1.47676 69.2031 2.25835 69.2031 3.07333C69.2031 3.8883 68.864 4.66989 68.2604 5.24617C67.6567 5.82244 66.838 6.14619 65.9844 6.14619C62.5697 6.14619 59.2949 7.44117 56.8804 9.74626C54.4658 12.0514 53.1094 15.1777 53.1094 18.4376C53.1094 20.1347 54.4851 21.5105 56.1822 21.5105L77.25 21.5105C78.9573 21.5105 80.5947 22.158 81.802 23.3105C83.0093 24.4631 83.6875 26.0262 83.6875 27.6562L83.6875 52.2391C83.6875 53.869 83.0093 55.4322 81.802 56.5847C80.5947 57.7373 78.9573 58.3848 77.25 58.3848L53.1094 58.3848C51.402 58.3848 49.7646 57.7373 48.5574 56.5847C47.3501 55.4322 46.6719 53.869 46.6719 52.239ZM6.4375 58.3848L30.5781 58.3848C32.2855 58.3848 33.9229 57.7373 35.1301 56.5847C36.3374 55.4322 37.0156 53.869 37.0156 52.239L37.0156 27.6562C37.0156 26.0262 36.3374 24.4631 35.1301 23.3105C33.9229 22.158 32.2855 21.5105 30.5781 21.5105L9.51036 21.5105C7.81327 21.5105 6.4375 20.1347 6.4375 18.4376C6.4375 15.1777 7.79397 12.0514 10.2085 9.74626C12.623 7.44117 15.8978 6.14618 19.3125 6.14618C20.1662 6.14618 20.9849 5.82244 21.5885 5.24616C22.1921 4.66989 22.5313 3.8883 22.5313 3.07332C22.5313 2.25835 22.1921 1.47676 21.5885 0.900481C20.9849 0.32421 20.1662 0.000463906 19.3125 0.000463835C14.1921 0.0055484 9.28303 1.94966 5.66238 5.40619C2.04174 8.86273 0.00532942 13.5493 3.6581e-06 18.4376L5.62784e-07 52.239C4.13524e-07 53.869 0.678238 55.4322 1.8855 56.5847C3.09277 57.7373 4.73017 58.3848 6.4375 58.3848Z" fill="white" fill-opacity="0.06"/>
</svg>
